<?xml version="1.0" encoding="UTF-8"?>
<svg width="580px" height="580px" viewBox="0 0 580 580" version="1.1" xmlns="http://www.w3.org/2000/svg" xmlns:xlink="http://www.w3.org/1999/xlink">
    <!-- Generator: Sketch 51.3 (57544) - http://www.bohemiancoding.com/sketch -->
    <title>Artboard</title>
    <desc>Created with Sketch.</desc>
    <defs></defs>
    <g id="Artboard" stroke="none" stroke-width="1" fill="none" fill-rule="evenodd">
        <g id="icon" transform="translate(27.000000, 53.000000)" fill-rule="nonzero">
            <g id="speech_bubble" transform="translate(48.000000, 0.000000)" stroke="#515151" stroke-width="31.9999981">
                <path d="M213.892738,335.051006 C195.436459,349.091538 179.145042,359.957328 165.018487,367.648376 C134.55049,384.236344 96.6785993,396.14439 51.4028153,403.372514 C59.6842024,375.820534 65.4392852,351.839751 68.6680639,331.430166 C70.4564113,320.125759 71.0696798,305.331001 70.5078694,287.045894 C26.9554191,256.624178 0,214.520211 0,168 C0,75.216162 107.227802,0 239.5,0 C371.772198,0 479,75.216162 479,168 C479,260.783838 371.772198,336 239.5,336 C230.849466,336 222.306049,335.678293 213.892738,335.051006 Z" id="Combined-Shape"></path>
                <g id="Group" transform="translate(143.140234, 92.800000)" stroke-linecap="square">
                    <path d="M0.391739269,8 L193.127459,8" id="Line-2"></path>
                    <path d="M0.391739269,75.2 L193.127459,75.2" id="Line-2-Copy"></path>
                    <path d="M0.391739269,142.4 L193.127459,142.4" id="Line-2-Copy-2"></path>
                </g>
            </g>
            <path d="M211.887007,354.090989 L26.5598361,354.090989 C6.40144275,354.090989 -9.94016388,337.749383 -9.94016388,317.590989 C-9.94016388,297.432596 6.40144275,281.090989 26.5598361,281.090989 L211.068985,281.090989 L141.721058,211.743062 C128.056645,198.078648 128.056645,175.924257 141.721058,162.259843 L141.735314,162.245587 C155.399728,148.581174 177.554119,148.581174 191.218533,162.245587 L317.428263,288.455318 C326.481123,295.29309 331.940164,305.993096 331.940164,317.590989 C331.940164,322.246918 331.063071,326.797219 329.376726,331.047442 C327.641773,335.764706 324.900659,340.072286 321.278942,343.694004 L191.218533,473.754413 C177.554119,487.418826 155.399728,487.418826 141.735314,473.754413 L141.721058,473.740157 C128.056645,460.075743 128.056645,437.921352 141.721058,424.256938 L211.887007,354.090989 Z" id="arrow" stroke="#FFFFFF" stroke-width="20" fill="#515151" stroke-linecap="round" stroke-linejoin="round" transform="translate(161.000000, 318.000000) scale(-1, 1) translate(-161.000000, -318.000000) "></path>
        </g>
    </g>
</svg>